# xmcd CD database file
# Copyright (C) 1993-1998 Ti Kan
#
# Track frame offsets:
#	150
#	14720
#	26115
#	39262
#	56135
#	67890
#	85350
#	98780
#	112320
#	122672
#	138675
#	156842
#
# Disc length: 2299 seconds
#
# Revision: 1
# Processed by: cddbd v1.4b41PL1 Copyright (c) Steve Scherf et al.
# Submitted via: CDValet v3.31 - Copyright (c) 1997 Greg Leichner
#
DISCID=ab08f90c
DTITLE=Roy Book Binder - Buckeroo!
DYEAR=1900
DGENRE=
TTITLE0=Friend Like Me
TTITLE1=Gonna Get Myself A Motorhome
TTITLE2=Something Different
TTITLE3=Mississippi Blues
TTITLE4=Gin Done Done It
TTITLE5=I'm Going Home
TTITLE6=Good Gal
TTITLE7=Nobody Knows I'm Hurtin'
TTITLE8=Waiting For A Train
TTITLE9=Cigarette Blues
TTITLE10=My Road Is Rough And Rocky
TTITLE11=Tell Me How Do You Feel
EXTD=
EXTT0=
EXTT1=
EXTT2=
EXTT3=
EXTT4=
EXTT5=
EXTT6=
EXTT7=
EXTT8=
EXTT9=
EXTT10=
EXTT11=
PLAYORDER=
